HIERARCHY
ROOT Hips
{
	OFFSET 0.00000 0.00000 0.00000
	CHANNELS 6 Xposition Yposition Zposition Zrotation Yrotation Xrotation 
	JOINT LHipJoint
	{
		OFFSET 0 0 0
		CHANNELS 3 Zrotation Yrotation Xrotation
		JOINT LeftUpLeg
		{
			OFFSET 1.33213 -1.58186 0.78596
			CHANNELS 3 Zrotation Yrotation Xrotation
			JOINT LeftLeg
			{
				OFFSET 2.29717 -6.31144 0.00000
				CHANNELS 3 Zrotation Yrotation Xrotation
				JOINT LeftFoot
				{
					OFFSET 2.38430 -6.55082 0.00000
					CHANNELS 3 Zrotation Yrotation Xrotation
					JOINT LeftToeBase
					{
						OFFSET 0.11863 -0.32594 1.77568
						CHANNELS 3 Zrotation Yrotation Xrotation
						End Site
						{
							OFFSET 0.00000 -0.00000 0.91633
						}
					}
				}
			}
		}
	}
	JOINT RHipJoint
	{
		OFFSET 0 0 0
		CHANNELS 3 Zrotation Yrotation Xrotation
		JOINT RightUpLeg
		{
			OFFSET -1.41575 -1.58186 0.78596
			CHANNELS 3 Zrotation Yrotation Xrotation
			JOINT RightLeg
			{
				OFFSET -2.42012 -6.64922 0.00000
				CHANNELS 3 Zrotation Yrotation Xrotation
				JOINT RightFoot
				{
					OFFSET -2.47254 -6.79327 0.00000
					CHANNELS 3 Zrotation Yrotation Xrotation
					JOINT RightToeBase
					{
						OFFSET -0.15219 -0.41813 1.93430
						CHANNELS 3 Zrotation Yrotation Xrotation
						End Site
						{
							OFFSET -0.00000 -0.00000 0.99984
						}
					}
				}
			}
		}
	}
	JOINT LowerBack
	{
		OFFSET 0 0 0
		CHANNELS 3 Zrotation Yrotation Xrotation
		JOINT Spine
		{
			OFFSET -0.04717 2.09389 -0.14516
			CHANNELS 3 Zrotation Yrotation Xrotation
			JOINT Spine1
			{
				OFFSET 0.02825 2.09433 -0.11325
				CHANNELS 3 Zrotation Yrotation Xrotation
				JOINT Neck
				{
					OFFSET 0 0 0
					CHANNELS 3 Zrotation Yrotation Xrotation
					JOINT Neck1
					{
						OFFSET -0.01210 1.39029 0.12448
						CHANNELS 3 Zrotation Yrotation Xrotation
						JOINT Head
						{
							OFFSET 0.09492 1.38365 0.14559
							CHANNELS 3 Zrotation Yrotation Xrotation
							End Site
							{
								OFFSET 0.03402 1.40343 0.03708
							}
						}
					}
				}
				JOINT LeftShoulder
				{
					OFFSET 0 0 0
					CHANNELS 3 Zrotation Yrotation Xrotation
					JOINT LeftArm
					{
						OFFSET 2.83352 1.10671 -0.20481
						CHANNELS 3 Zrotation Yrotation Xrotation
						JOINT LeftForeArm
						{
							OFFSET 4.77195 -0.00000 -0.00000
							CHANNELS 3 Zrotation Yrotation Xrotation
							JOINT LeftHand
							{
								OFFSET 2.98444 -0.00000 0.00000
								CHANNELS 3 Zrotation Yrotation Xrotation
								JOINT LeftFingerBase
								{
									OFFSET 0 0 0
									CHANNELS 3 Zrotation Yrotation Xrotation
									JOINT LeftHandIndex1
									{
										OFFSET 0.99228 -0.00000 0.00000
										CHANNELS 3 Zrotation Yrotation Xrotation
										End Site
										{
											OFFSET 0.80001 -0.00000 0.00000
										}
									}
								}
								JOINT LThumb
								{
									OFFSET 0 0 0
									CHANNELS 3 Zrotation Yrotation Xrotation
									End Site
									{
										OFFSET 0.81222 -0.00000 0.81222
									}
								}
							}
						}
					}
				}
				JOINT RightShoulder
				{
					OFFSET 0 0 0
					CHANNELS 3 Zrotation Yrotation Xrotation
					JOINT RightArm
					{
						OFFSET -3.23760 1.11106 0.06723
						CHANNELS 3 Zrotation Yrotation Xrotation
						JOINT RightForeArm
						{
							OFFSET -4.62052 -0.00000 0.00000
							CHANNELS 3 Zrotation Yrotation Xrotation
							JOINT RightHand
							{
								OFFSET -2.95332 -0.00000 0.00000
								CHANNELS 3 Zrotation Yrotation Xrotation
								JOINT RightFingerBase
								{
									OFFSET 0 0 0
									CHANNELS 3 Zrotation Yrotation Xrotation
									JOINT RightHandIndex1
									{
										OFFSET -0.99096 -0.00000 0.00000
										CHANNELS 3 Zrotation Yrotation Xrotation
										End Site
										{
											OFFSET -0.79893 -0.00000 0.00000
										}
									}
								}
								JOINT RThumb
								{
									OFFSET 0 0 0
									CHANNELS 3 Zrotation Yrotation Xrotation
									End Site
									{
										OFFSET -0.81113 -0.00000 0.81113
									}
								}
							}
						}
					}
				}
			}
		}
	}
}
MOTION
Frames: 14
Frame Time: .0083333
7.5385 14.5078 15.9816 -175.7680 -37.4709 -140.5120 0.0000 0.0000 0.0000 10.3281 -21.7933 -90.7207 9.2898 16.9907 57.0872 -0.2010 -9.3615 -1.9002 0.5180 4.6127 12.8070 0.0000 0.0000 0.0000 15.7082 23.0128 -76.8338 -11.1756 -18.0200 63.3507 -2.5084 18.0039 -29.3959 -0.8115 -5.7488 16.0572 -11.0984 -1.4678 25.4837 4.9905 -7.3147 16.3429 12.6194 -6.0871 5.9186 -34.0480 3.6073 5.0167 23.7398 4.6689 -18.5730 14.3179 2.5508 -7.8620 0.0000 0.0000 0.0000 -79.9190 -45.9022 -1.1299 20.6783 -31.4509 -5.8812 -0.0000 -0.0000 13.2826 21.0956 7.6873 2.9541 -7.1250 0.0000 -0.0000 -4.9217 38.1696 0.8302 0.0000 0.0000 0.0000 81.4465 35.5292 46.3100 -38.8242 47.3577 -17.5694 0.0000 0.0000 7.0968 -4.9674 -3.6495 0.3170 7.1250 -0.0000 -0.0000 17.5002 -33.2441 5.2543
7.4736 14.5148 15.8887 -175.6610 -37.0653 -140.8540 0.0000 0.0000 0.0000 9.9289 -21.9189 -89.7781 9.0647 16.8492 56.3136 -0.2130 -8.2538 1.6400 0.8612 5.9178 16.5460 0.0000 0.0000 0.0000 15.9970 23.0726 -75.9420 -11.2179 -18.0401 63.4872 -2.5390 18.4926 -29.6612 -0.8745 -5.9620 16.6743 -11.1867 -1.2607 25.8486 4.9630 -7.1404 16.3591 12.6357 -6.0082 5.7256 -33.9734 3.7518 5.1499 24.1434 4.9113 -18.6791 14.4950 2.6231 -8.0083 -0.0000 0.0000 0.0000 -80.0786 -46.0594 -0.9930 20.3739 -31.0902 -5.7232 -0.0000 -0.0000 13.4562 21.0859 7.4987 2.8807 -7.1250 0.0000 -0.0000 -4.9082 37.9682 0.8522 -0.0000 0.0000 0.0000 81.4202 35.2837 46.1013 -38.5566 47.1911 -17.3728 0.0000 0.0000 7.1767 -5.1226 -3.8584 0.3456 7.1250 -0.0000 -0.0000 17.4205 -33.4509 5.1369
7.3957 14.5116 15.8054 -175.8610 -36.8738 -140.8770 0.0000 0.0000 0.0000 9.5873 -22.4148 -88.9015 8.9773 16.7931 56.0117 -0.1412 -6.6637 1.9457 2.7221 10.2310 29.7279 0.0000 0.0000 0.0000 16.0141 22.7734 -75.4911 -11.3364 -18.0958 63.8692 -2.4316 19.4270 -29.3174 -1.1697 -6.8653 19.3170 -10.9702 -1.3305 25.9732 4.7856 -7.2164 16.3912 12.3342 -6.0163 5.6794 -33.6590 3.8518 5.2454 24.4220 5.1049 -18.6704 14.5580 2.6607 -8.0827 0.0000 0.0000 0.0000 -79.9978 -46.1299 -0.7185 20.1831 -30.8623 -5.6250 -0.0000 -0.0000 13.5238 21.0291 7.3713 2.8238 -7.1250 0.0000 -0.0000 -4.9419 37.8287 0.8750 0.0000 0.0000 0.0000 81.5523 34.9678 45.7968 -38.3320 47.0500 -17.2082 0.0000 0.0000 7.5414 -5.1364 -4.0661 0.3652 7.1250 -0.0000 -0.0000 17.4521 -33.6504 5.0585
7.3212 14.5088 15.7217 -175.9440 -36.6901 -140.9720 0.0000 0.0000 0.0000 9.5613 -22.7916 -88.0457 9.0222 16.8220 56.1670 -0.1052 -7.7077 -2.6697 0.6462 5.1423 14.3150 0.0000 0.0000 0.0000 16.0740 22.5602 -75.1759 -11.5228 -18.1815 64.4678 -2.4986 19.7624 -29.7470 -1.1328 -6.7599 19.0059 -10.9684 -1.2656 26.2395 4.8557 -7.1553 16.2943 12.4284 -5.9706 5.4423 -33.3410 3.9188 5.3527 24.4648 5.2024 -18.5374 14.4984 2.6704 -8.0815 -0.0000 -0.0000 0.0000 -80.3735 -46.1823 -0.2535 19.9630 -30.5978 -5.5125 -0.0000 -0.0000 13.7176 20.9074 7.5163 2.8607 -7.1250 0.0000 -0.0000 -5.0622 37.9748 0.8783 -0.0000 -0.0000 0.0000 81.3893 34.4423 45.1516 -38.1336 46.9244 -17.0631 0.0000 0.0000 7.9446 -4.7789 -4.1022 0.3427 7.1250 -0.0000 -0.0000 17.7414 -33.6684 5.1415
7.2527 14.5098 15.6364 -176.1460 -36.4519 -140.9710 0.0000 0.0000 0.0000 9.4853 -23.0600 -87.4816 9.1306 16.8910 56.5406 -0.1496 -8.4671 -2.2286 1.2656 7.1309 20.1037 0.0000 0.0000 0.0000 15.9867 22.3655 -75.0630 -11.8064 -18.3076 65.3737 -2.3594 20.3920 -29.1924 -1.3163 -7.2667 20.5079 -11.0259 -1.1966 26.3004 4.8036 -7.1016 16.3145 12.3954 -5.9502 5.4223 -32.8255 3.9352 5.6322 24.4783 5.2026 -18.5762 14.4124 2.6136 -8.1277 0.0000 -0.0000 0.0000 -80.3915 -46.5523 -0.0640 19.6079 -30.1671 -5.3329 -0.0000 -0.0000 14.0272 20.7338 7.7729 2.9308 -7.1250 0.0000 -0.0000 -5.2409 38.2354 0.8759 0.0000 -0.0000 0.0000 81.5196 34.0607 44.4471 -37.8273 46.7287 -16.8397 0.0000 0.0000 8.1213 -4.3530 -4.1682 0.3170 7.1250 -0.0000 -0.0000 18.0907 -33.7115 5.2319
7.1861 14.5183 15.5477 -176.5950 -36.1741 -140.9940 0.0000 0.0000 0.0000 8.8993 -23.3182 -86.8323 9.2306 16.9538 56.8841 -0.1236 -8.4058 -2.9582 0.7460 5.5170 15.3891 0.0000 0.0000 0.0000 15.7613 22.0240 -74.9015 -12.1961 -18.4723 66.6091 -2.2424 20.6406 -28.6543 -1.2475 -7.0815 19.9571 -11.3013 -1.0741 26.7132 4.7423 -7.0662 16.2817 12.5018 -5.9449 5.2202 -32.3925 3.9037 5.7792 24.6866 5.1930 -18.6065 14.4361 2.5444 -8.1492 -0.0000 -0.0000 0.0000 -80.3053 -46.8894 0.2269 19.2085 -29.6769 -5.1337 -0.0000 -0.0000 14.1689 20.7448 7.8243 2.9517 -7.1250 0.0000 -0.0000 -5.2377 38.2907 0.8682 -0.0000 -0.0000 0.0000 81.5129 33.5612 43.8278 -37.4884 46.5094 -16.5934 0.0000 0.0000 8.0405 -4.7028 -4.0016 0.3289 7.1250 -0.0000 -0.0000 17.7804 -33.5689 5.1989
7.1150 14.5239 15.4636 -177.0760 -36.0768 -140.9090 0.0000 0.0000 0.0000 8.3242 -23.6926 -86.2371 9.2934 16.9929 57.0994 -0.1290 -8.7735 -3.2482 0.9072 6.0696 16.9866 0.0000 0.0000 0.0000 15.4768 21.4759 -75.1834 -12.7155 -18.6770 68.2395 -1.9968 20.7606 -27.3896 -1.0749 -6.5903 18.5072 -11.5971 -0.8154 27.0541 4.9235 -6.8873 16.3589 12.8570 -5.9151 5.1575 -31.3946 3.6912 5.5399 24.3255 5.0076 -18.5819 14.0762 2.4028 -7.9854 -0.0000 -0.0000 0.0000 -80.5559 -47.6523 1.0389 18.7829 -29.1481 -4.9247 -0.0000 -0.0000 14.1697 20.7917 7.7057 2.9145 -7.1250 0.0000 -0.0000 -5.1833 38.1681 0.8748 -0.0000 -0.0000 0.0000 81.1609 33.3186 42.7230 -37.0446 46.2181 -16.2723 0.0000 0.0000 8.0216 -5.1624 -3.7221 0.3360 7.1250 -0.0000 -0.0000 17.3615 -33.3220 5.1748
7.0399 14.5343 15.3800 -177.6500 -35.9660 -140.7970 0.0000 0.0000 0.0000 7.7463 -24.2628 -85.4501 9.3256 17.0127 57.2095 -0.1247 -9.1380 -3.7751 1.0402 6.4864 18.2025 0.0000 0.0000 0.0000 14.9529 20.7235 -75.8625 -13.3580 -18.9076 70.2337 -1.5937 20.9784 -25.2432 -0.7798 -5.6377 15.7369 -11.6730 -0.7516 27.4776 4.9233 -6.9004 16.3675 12.9275 -5.9288 4.9956 -30.6816 3.5636 5.2792 24.2114 4.9407 -18.3497 13.8632 2.3240 -7.8079 -0.0000 -0.0000 0.0000 -80.2683 -47.8076 1.6768 18.5645 -28.8739 -4.8187 -0.0000 -0.0000 13.8554 20.5143 7.4909 2.7927 -7.1250 0.0000 -0.0000 -5.3941 37.9213 0.9434 -0.0000 -0.0000 0.0000 81.1795 32.8788 41.8777 -36.5646 45.8976 -15.9266 0.0000 0.0000 8.1507 -5.3463 -3.5924 0.3360 7.1250 -0.0000 -0.0000 17.1910 -33.2057 5.1705
6.9625 14.5514 15.2953 -177.9520 -35.5895 -140.7260 0.0000 0.0000 0.0000 7.3090 -24.5578 -84.6904 9.3558 17.0313 57.3125 -0.1003 -9.3419 -4.5585 1.0572 6.5377 18.3527 0.0000 0.0000 0.0000 14.2517 20.2797 -76.8833 -14.0825 -19.1389 72.4563 -0.9880 21.5205 -21.9013 -0.7051 -5.3671 14.9587 -11.5885 -0.7870 27.6269 4.7318 -6.9392 16.3009 12.6851 -5.9086 4.8381 -30.0273 3.5617 5.2049 24.0287 4.9828 -18.0448 13.6180 2.3068 -7.6813 0.0000 0.0000 0.0000 -79.4376 -47.2368 2.4520 18.6607 -28.9949 -4.8653 -0.0000 -0.0000 12.9813 19.9884 7.3726 2.6724 -7.1250 0.0000 -0.0000 -5.8267 37.7611 1.0426 0.0000 0.0000 0.0000 81.4018 32.2117 41.2845 -36.0119 45.5213 -15.5310 0.0000 0.0000 8.0219 -5.5869 -3.4758 0.3398 7.1250 -0.0000 -0.0000 16.9788 -33.1040 5.1452
6.8883 14.5700 15.2158 -178.0370 -35.1418 -140.6560 0.0000 0.0000 0.0000 7.1077 -24.7167 -84.1052 9.3925 17.0538 57.4380 -0.0742 -9.5437 -5.2969 1.1845 6.9070 19.4402 0.0000 0.0000 0.0000 13.3979 19.9974 -78.3153 -14.8407 -19.3495 74.7565 -0.2256 22.0634 -17.1882 -0.8570 -5.9037 16.5052 -11.4391 -0.7947 27.6102 4.5963 -6.8967 16.2110 12.4484 -5.8428 4.7002 -31.7945 4.4499 7.4634 26.8553 6.0359 -20.8067 15.6628 2.6010 -9.5748 -0.0000 0.0000 0.0000 -78.9058 -47.2469 3.0150 18.4725 -28.7579 -4.7744 -0.0000 -0.0000 12.5550 19.4626 7.3792 2.5987 -7.1250 0.0000 -0.0000 -6.2737 37.7335 1.1275 -0.0000 0.0000 0.0000 81.4796 31.5967 40.5980 -35.3044 45.0283 -15.0283 0.0000 0.0000 7.8253 -5.7845 -3.3621 0.3404 7.1250 -0.0000 -0.0000 16.8014 -33.0029 5.1302
6.8123 14.5797 15.1454 -178.4270 -34.7612 -140.1910 0.0000 0.0000 0.0000 6.8262 -25.1148 -83.8704 9.4173 17.0689 57.5225 -0.0369 -9.5969 -6.0637 1.2299 7.0332 19.8138 0.0000 0.0000 0.0000 12.1081 19.4187 -80.3626 -15.5727 -19.5234 76.9561 0.3811 22.2514 -12.6798 -0.5914 -4.9234 13.6901 -11.2907 -0.8840 27.3949 4.5254 -6.9106 16.0742 12.2857 -5.8016 4.6206 -30.2851 4.1223 6.8294 25.0579 5.5827 -19.7279 14.3101 2.4497 -8.7881 -0.0000 -0.0000 0.0000 -78.8871 -47.9542 3.2744 17.8747 -27.9964 -4.4903 -0.0000 -0.0000 12.7552 19.0333 7.1644 2.4636 -7.1250 0.0000 -0.0000 -6.6095 37.4802 1.2298 -0.0000 -0.0000 0.0000 81.3268 30.9380 39.6143 -34.8079 44.6744 -14.6781 0.0000 0.0000 8.1752 -5.5174 -3.4497 0.3330 7.1250 -0.0000 -0.0000 17.0284 -33.0760 5.1735
6.7397 14.5896 15.0672 -178.6270 -34.4623 -139.8210 0.0000 0.0000 0.0000 6.5939 -25.3330 -83.6760 9.4485 17.0878 57.6286 0.0097 -9.5562 -6.8681 1.1120 6.6995 18.8280 0.0000 0.0000 0.0000 10.9369 18.9351 -82.2659 -16.1629 -19.6433 78.7168 0.8011 22.3038 -8.9026 -2.6955 -10.1849 29.5777 -11.0894 -0.9123 27.2278 4.5988 -6.8321 15.8986 12.2465 -5.7124 4.4602 -30.2781 4.2720 7.5145 25.3105 5.6886 -20.2435 14.4971 2.4469 -9.1450 0.0000 -0.0000 0.0000 -79.0604 -48.2807 4.0802 17.6143 -27.6605 -4.3687 -0.0000 -0.0000 12.5850 18.6944 7.2844 2.4567 -7.1250 0.0000 -0.0000 -6.9120 37.5841 1.2690 0.0000 -0.0000 0.0000 81.0521 30.1906 38.3939 -34.4480 44.4139 -14.4257 0.0000 0.0000 8.6768 -4.6520 -3.5935 0.2922 7.1250 -0.0000 -0.0000 17.7363 -33.1768 5.3617
6.6536 14.6381 14.9749 -178.8810 -34.2173 -140.6530 0.0000 0.0000 0.0000 5.6183 -25.8097 -81.7515 9.4694 17.1005 57.6998 0.0704 -9.5943 -7.8883 1.0344 6.4690 18.1513 0.0000 0.0000 0.0000 10.2200 18.0238 -82.3352 -16.4895 -19.7019 79.6868 0.9451 23.2781 -8.6198 -4.0439 -12.2185 36.5095 -10.8560 -0.6542 28.6773 4.7165 -6.7053 15.9083 12.3218 -5.6381 3.7994 -30.0770 4.4123 8.1344 25.4758 5.8170 -20.8014 14.6099 2.4441 -9.5059 -0.0000 0.0000 0.0000 -79.1736 -48.3661 5.3747 17.7618 -27.8511 -4.4374 -0.0000 -0.0000 12.1365 18.4000 8.0153 2.6558 -7.1250 0.0000 -0.0000 -7.2640 38.3271 1.2012 -0.0000 0.0000 0.0000 80.7994 29.5379 37.1397 -34.0572 44.1271 -14.1529 0.0000 0.0000 9.0190 -4.0044 -3.4945 0.2445 7.1250 -0.0000 -0.0000 18.2228 -33.0541 5.5793
6.5832 14.6576 14.8845 -179.2250 -33.7040 -140.6770 0.0000 0.0000 0.0000 4.9358 -26.0217 -80.9032 9.5234 17.1330 57.8833 0.1246 -9.6282 -8.7271 1.0110 6.3975 17.9423 0.0000 0.0000 0.0000 8.9851 17.3582 -83.5383 -16.5949 -19.7197 79.9994 0.5666 22.3279 -11.1447 -5.6954 -14.1265 43.7468 -10.9405 -0.4188 29.0524 4.7719 -6.5034 15.9006 12.4146 -5.5482 3.5908 -29.5478 4.4653 8.7150 25.4480 5.8510 -21.3301 14.5645 2.3831 -9.7987 0.0000 0.0000 0.0000 -79.3880 -48.8762 6.5542 17.7491 -27.8347 -4.4315 -0.0000 -0.0000 12.1741 18.1483 8.6390 2.8187 -7.1250 0.0000 -0.0000 -7.5725 38.9579 1.1349 0.0000 0.0000 0.0000 80.5803 28.7882 35.8329 -33.8861 44.0002 -14.0339 0.0000 0.0000 9.4645 -3.8969 -3.4126 0.2323 7.1250 -0.0000 -0.0000 18.2898 -32.9714 5.6403
